:SAMPLES-PER-SECOND 30
:FULLY-SPECIFIED
:DEGREES
445
root  0.0242744 30.4637 0.442191 159.804 50.6208 -124.617
Spine  -20.0578 -34.6962 5.99159
Spine1  -34.9369 38.8716 -52.7758
Neck  3.97569e-016 0 -2.38542e-015
Head  -23.2454 11.9056 17.4223
R_Clavicle  6.76547 19.8491 19.7693
R_UpperArm  77.8948 34.5858 43.2557
R_Forearm  -11.5069 -9.70086 13.5577
R_Hand  -33.5155 28.2723 -108.128
L_Clavicle  0.180971 -14.6923 0.975464
L_UpperArm  -29.1417 -68.506 0.403459
L_Forearm  -15.3492 37.0934 66.5366
L_Hand  0.0299818 -5.79333 -11.903
L_Thigh  4.23565 52.9593 48.5819
L_Calf  -21.7949 -8.25619 54.9007
L_Foot  4.18952 14.3444 2.07668
L_Toe0  0.505156 0.0344455 -6.1361
R_Thigh  8.85076 -48.6784 -1.15142
R_Calf  5.3105 10.2291 33.7359
R_Foot  -6.64757 -32.7205 -6.55229
R_Toe0  -1.78853 -0.270571 -17.3236
446
root  0.831505 30.2895 -0.864397 140.807 46.6613 -134.01
Spine  -21.5452 -35.0831 7.34384
Spine1  -39.8358 45.2285 -53.9338
Neck  3.97569e-016 0 -2.38542e-015
Head  -19.5699 11.9894 17.6726
R_Clavicle  4.96458 23.121 13.9024
R_UpperArm  75.0539 31.6036 42.5358
R_Forearm  11.3639 -11.332 13.5604
R_Hand  -34.275 23.1152 -117.87
L_Clavicle  0.999134 -18.5757 -1.64436
L_UpperArm  -10.9574 -67.5137 -26.77
L_Forearm  -17.0966 37.1499 66.5179
L_Hand  -0.0368683 -4.85801 -8.64125
L_Thigh  5.73944 52.0417 51.8528
L_Calf  -19.5511 -8.67569 55.6007
L_Foot  1.36644 9.13139 -3.11918
L_Toe0  0.505156 0.0344455 -6.1361
R_Thigh  5.11341 -48.9113 3.22758
R_Calf  4.79804 10.1379 33.3763
R_Foot  -5.05177 -26.8947 -7.59877
R_Toe0  -1.78853 -0.270589 -17.3236
447
root  0.97568 30.5916 -2.31411 122.102 41.93 -138.491
Spine  -20.95 -32.2792 6.79943
Spine1  -38.4897 47.1522 -49.2456
Neck  3.97569e-016 0 -2.38542e-015
Head  -13.2466 10.1066 15.4459
R_Clavicle  3.76208 18.803 11.6562
R_UpperArm  70.5345 40.7578 35.5568
R_Forearm  23.1224 -12.9745 13.605
R_Hand  -35.3414 22.6757 -120.952
L_Clavicle  1.36232 -17.5092 -3.08034
L_UpperArm  -6.5459 -62.8269 -36.134
L_Forearm  -23.6548 37.6091 66.3622
L_Hand  0.0403943 -5.96441 -8.39828
L_Thigh  2.98369 53.0273 46.948
L_Calf  -17.9702 -9.13704 55.3908
L_Foot  -1.12444 5.74298 -10.2417
L_Toe0  0.505156 0.0344456 -6.1361
R_Thigh  -3.84168 -50.3592 9.77585
R_Calf  -1.38518 10.2038 33.604
R_Foot  -0.710853 -11.2229 -11.6997
R_Toe0  -1.78853 -0.270609 -17.3236
448
root  0.499899 31.2145 -3.65581 102.897 37.4071 -141.341
Spine  -18.6311 -26.5171 5.49609
Spine1  -32.5157 44.5698 -41.4616
Neck  3.97569e-016 0 -2.38542e-015
Head  -8.07555 9.81474 9.62994
R_Clavicle  3.70697 19.2625 11.4105
R_UpperArm  66.8703 42.2138 20.319
R_Forearm  30.333 -12.0205 14.8042
R_Hand  -38.2941 23.5701 -124.212
L_Clavicle  1.00149 -14.8578 -2.23968
L_UpperArm  -10.8705 -57.3173 -34.8633
L_Forearm  -33.3463 37.5261 66.391
L_Hand  0.106617 -6.51285 -10.6274
L_Thigh  -1.71106 53.7808 38.6863
L_Calf  -14.8864 -9.75289 55.0078
L_Foot  -2.85813 0.399872 -14.792
L_Toe0  0.505156 0.0344456 -6.1361
R_Thigh  -10.4284 -52.4116 15.2158
R_Calf  -7.78993 10.8515 36.0981
R_Foot  2.68436 7.18144 -12.5704
R_Toe0  -1.78853 -0.270628 -17.3236
449
root  -0.53758 31.9031 -4.78778 83.4995 31.9558 -144.211
Spine  -15.067 -19.6007 4.00735
Spine1  -25.7627 39.1371 -35.2018
Neck  3.97569e-016 0 -2.38542e-015
Head  -5.7692 11.6952 3.51905
R_Clavicle  3.08783 18.0227 9.87014
R_UpperArm  64.4816 42.6864 10.3168
R_Forearm  38.7622 -10.1128 14.2067
R_Hand  -38.1171 22.7411 -125.532
L_Clavicle  0.602035 -12.4976 -1.06799
L_UpperArm  -16.1397 -53.2005 -32.2523
L_Forearm  -43.9945 36.7889 67.7167
L_Hand  0.0683592 -5.17509 -10.089
L_Thigh  -4.82965 52.5608 32.3084
L_Calf  -11.4965 -9.68754 54.8507
L_Foot  -4.05737 -6.94876 -17.0906
L_Toe0  0.505156 0.0344456 -6.1361
R_Thigh  -11.5803 -53.2636 18.3241
R_Calf  -5.08224 11.2761 37.8267
R_Foot  1.9295 3.16483 -12.1806
R_Toe0  -1.78853 -0.270648 -17.3236
450
root  -1.87476 32.4323 -5.42316 64.4365 26.2162 -146.169
Spine  -10.2945 -12.6434 3.21624
Spine1  -18.5744 31.3253 -31.1562
Neck  3.97569e-016 0 -2.38542e-015
Head  -6.4659 14.1483 -1.03856
R_Clavicle  1.89746 17.3539 6.53868
R_UpperArm  64.6468 39.5272 9.121
R_Forearm  54.1778 -6.69302 11.5055
R_Hand  -26.3881 12.9622 -125.288
L_Clavicle  0.488709 -10.5023 -0.876796
L_UpperArm  -21.4408 -50.2553 -26.861
L_Forearm  -60.7285 34.2742 58.88
L_Hand  0.123538 -9.29318 -12.688
L_Thigh  -6.43308 50.4114 28.5541
L_Calf  -8.69372 -9.33162 54.3751
L_Foot  -4.62321 -10.6919 -18.8859
L_Toe0  0.505156 0.0344456 -6.1361
R_Thigh  -12.026 -53.6733 19.903
R_Calf  0.0631759 10.9599 36.5767
R_Foot  0.456921 -4.01451 -10.8661
R_Toe0  -1.78853 -0.270669 -17.3236
451
root  -3.24451 32.7614 -5.4264 44.7886 21.472 -148.104
Spine  -4.89131 -4.77971 5.23545
Spine1  -11.0118 19.9051 -29.3009
Neck  3.97569e-016 0 -2.38542e-015
Head  -9.55496 16.1314 -5.0425
R_Clavicle  0.889503 17.8648 3.50598
R_UpperArm  65.4164 32.8839 9.45159
R_Forearm  76.5248 -2.95991 8.98132
R_Hand  -10.4441 0.857735 -122.415
L_Clavicle  0.235392 -9.47754 0.153325
L_UpperArm  -34.2604 -43.1291 -10.7362
L_Forearm  -86.749 17.214 24.4998
L_Hand  7.98509 -28.4113 -39.0466
L_Thigh  -8.59068 48.7843 25.1613
L_Calf  -4.92171 -9.01535 53.4416
L_Foot  -4.85717 -12.3252 -20.0041
L_Toe0  0.505156 0.0344456 -6.1361
R_Thigh  -12.5218 -54.8374 19.7528
R_Calf  3.02281 10.6654 35.4036
R_Foot  -0.321245 -5.25052 -7.40325
R_Toe0  -1.78853 -0.27069 -17.3236
452
root  -4.64127 32.8768 -4.87296 24.2759 16.6309 -150.637
Spine  1.05892 4.11288 10.48
Spine1  -3.16591 4.81228 -29.9951
Neck  3.97569e-016 0 -2.38542e-015
Head  -14.127 16.668 -8.56111
R_Clavicle  0.364454 17.4575 1.96949
R_UpperArm  64.3887 27.5083 6.77121
R_Forearm  91.8235 -0.969963 7.80047
R_Hand  -3.6959 -4.19047 -120.963
L_Clavicle  -0.353914 -7.33726 2.60489
L_UpperArm  -34.4109 -40.7674 -13.7724
L_Forearm  -88.1312 7.02143 13.1276
L_Hand  20.123 -32.923 -69.389
L_Thigh  -10.9446 47.4834 22.2952
L_Calf  -0.698159 -8.24447 51.8224
L_Foot  -4.99208 -13.3071 -20.7446
L_Toe0  0.505156 0.0344456 -6.1361
R_Thigh  -12.5758 -56.3091 19.7439
R_Calf  7.08926 10.8659 36.1997
R_Foot  -0.907741 -6.34295 -5.33372
R_Toe0  -1.78853 -0.270711 -17.3236
453
root  -5.87037 32.6878 -3.79565 3.83203 10.9294 -152.667
Spine  8.48708 12.887 17.2513
Spine1  6.10944 -12.1779 -32.9358
Neck  3.97569e-016 0 -2.38542e-015
Head  -18.9746 14.6232 -9.91925
R_Clavicle  -0.357181 16.2743 -0.193793
R_UpperArm  64.8322 23.0823 6.06822
R_Forearm  91.1731 -1.47453 8.3661
R_Hand  -7.63803 -3.47823 -113.426
L_Clavicle  -0.774372 -4.21321 4.79714
L_UpperArm  -29.0314 -41.0835 -24.6174
L_Forearm  -72.1988 5.83249 12.9171
L_Hand  24.4781 -33.3397 -80.1723
L_Thigh  -11.1814 45.5953 22.1916
L_Calf  3.05862 -6.71964 47.768
L_Foot  -4.94216 -13.0553 -20.3457
L_Toe0  0.505156 0.0344456 -6.1361
R_Thigh  -14.6117 -57.8086 22.603
R_Calf  11.8264 11.3968 38.3567
R_Foot  -0.930948 -6.43678 -5.33983
R_Toe0  -1.78853 -0.270733 -17.3236
454
root  -6.56557 32.0714 -2.383 -16.1553 4.85449 -154.642
Spine  17.8229 20.0644 24.7427
Spine1  17.1896 -27.8055 -36.4623
Neck  3.97569e-016 0 -2.38542e-015
Head  -22.9676 10.9069 -9.24429
R_Clavicle  -1.60148 15.311 -4.11687
R_UpperArm  66.903 19.9267 11.2937
R_Forearm  74.5873 -3.05445 8.86549
R_Hand  -30.6769 19.4388 -120.081
L_Clavicle  -0.969614 1.42002 7.52896
L_UpperArm  -21.5313 -43.4766 -32.0343
L_Forearm  -62.5974 10.6855 15.0811
L_Hand  22.1058 -34.0032 -73.4587
L_Thigh  -9.5715 43.0789 21.7952
L_Calf  5.09442 -5.60126 44.8614
L_Foot  -4.96238 -13.3386 -20.3346
L_Toe0  0.505156 0.0344456 -6.1361
R_Thigh  -19.7458 -59.4037 28.7505
R_Calf  14.2185 12.1127 41.2542
R_Foot  -1.23442 -7.44186 -5.00421
R_Toe0  -1.78853 -0.270756 -17.3236
455
root  -6.63334 30.9518 -1.14349 -35.1147 -2.64853 -157.769
Spine  27.0975 24.413 32.3743
Spine1  27.0405 -38.5338 -37.9927
Neck  3.97569e-016 0 -2.38542e-015
Head  -25.2984 8.76549 -8.71662
R_Clavicle  -2.27659 11.9227 -7.03388
R_UpperArm  64.2419 23.6072 16.3167
R_Forearm  54.203 -12.4519 12.8491
R_Hand  -37.7459 51.5708 -87.7962
L_Clavicle  -1.04041 2.82848 8.3312
L_UpperArm  -16.1198 -45.1633 -32.1746
L_Forearm  -62.5725 15.584 15.4923
L_Hand  20.1652 -34.2913 -67.4735
L_Thigh  -9.26387 40.7659 19.4498
L_Calf  6.54146 -5.36599 43.261
L_Foot  -4.95768 -12.0859 -21.3554
L_Toe0  0.505156 0.0344456 -6.1361
R_Thigh  -25.6257 -60.2691 36.3584
R_Calf  15.9547 12.7446 44.8125
R_Foot  -2.09975 -10.2892 -4.09462
R_Toe0  -1.78853 -0.270779 -17.3236
456
root  -6.31254 29.3988 -0.498839 -51.9199 -12.8459 -161.122
Spine  33.3251 26.9725 38.0955
Spine1  31.2772 -42.2101 -36.2382
Neck  3.97569e-016 0 -2.38542e-015
Head  -24.8442 10.5551 -7.64978
R_Clavicle  -1.69794 5.37141 -6.63231
R_UpperArm  48.3025 34.7418 8.94932
R_Forearm  27.283 -31.4645 24.9774
R_Hand  -2.9803 33.0399 -22.2374
L_Clavicle  -1.14934 1.12886 8.54359
L_UpperArm  -19.4429 -41.5708 -23.4894
L_Forearm  -57.6334 15.6499 14.1709
L_Hand  22.1568 -35.1605 -71.2902
L_Thigh  -10.1416 38.4918 15.2895
L_Calf  8.12885 -5.31146 42.4617
L_Foot  -4.79713 -9.60089 -21.3901
L_Toe0  0.505156 0.0344456 -6.1361
R_Thigh  -26.5777 -59.6495 43.1766
R_Calf  14.73 11.985 48.5728
R_Foot  -2.17811 -10.9116 -4.48302
R_Toe0  -1.78853 -0.270802 -17.3236
